<?xml version="1.0" encoding="UTF-8"?>
<svg version="1.1" xmlns="http://www.w3.org/2000/svg" width="2304" height="1122">
<path d="M0 0 C1.32766271 1.19711332 2.62817625 2.42573015 3.88671875 3.6953125 C5.91199933 5.40759517 6.96162576 5.92414035 9.60546875 6.1484375 C12.52956283 5.45391115 12.52956283 5.45391115 15.73046875 4.3359375 C31.62468918 -0.41809944 48.17334202 -0.19870609 64.63085938 -0.16723633 C68.12791185 -0.164042 71.62414304 -0.18775202 75.12109375 -0.21289062 C77.37630103 -0.2151612 79.63151056 -0.21586824 81.88671875 -0.21484375 C83.43075378 -0.22865837 83.43075378 -0.22865837 85.00598145 -0.24275208 C94.72584333 -0.18111349 102.8964813 2.41819109 111.48046875 6.8359375 C112.16318848 7.18333984 112.8459082 7.53074219 113.54931641 7.88867188 C135.24520216 19.15530728 153.80601519 36.68581847 169.60546875 55.1484375 C170.58377747 56.27548487 171.56303 57.40171335 172.54296875 58.52734375 C175.36225411 61.7665587 178.17283983 65.01315178 180.97851562 68.26416016 C182.00454554 69.45247032 183.03173161 70.63978412 184.06054688 71.82568359 C191.97988569 80.96446541 199.36280403 90.46686907 206.60546875 100.1484375 C207.29237793 101.05529297 207.29237793 101.05529297 207.99316406 101.98046875 C222.64968282 121.37654884 237.13759444 146.01022715 235.60546875 171.1484375 C236.3325 170.49488281 236.3325 170.49488281 237.07421875 169.828125 C252.38466514 156.22538225 266.37288759 149.5416714 287.23046875 149.8359375 C288.3803125 149.83271484 289.53015625 149.82949219 290.71484375 149.82617188 C300.11750306 149.88507236 308.53583848 150.61142517 316.91796875 155.1484375 C323.86631288 158.85916868 329.45792877 160.51870434 337.23046875 161.4609375 C364.94490908 165.19135704 392.11146856 175.03413003 409.90234375 197.80859375 C420.21451209 211.60870138 427.27947607 227.60778619 427.83984375 245.00390625 C428.49268235 262.84949639 432.61614435 279.0565118 445.60546875 292.1484375 C448.15429204 293.13510356 448.15429204 293.13510356 450.85546875 293.2734375 C460.45808061 294.58288457 468.22878525 299.49472444 476.60546875 304.1484375 C477.26546875 304.4784375 477.92546875 304.8084375 478.60546875 305.1484375 C478.40050781 304.56835938 478.19554687 303.98828125 477.984375 303.390625 C477.71496094 302.60945313 477.44554687 301.82828125 477.16796875 301.0234375 C476.90113281 300.25773437 476.63429688 299.49203125 476.359375 298.703125 C474.44385041 292.21217638 474.47376362 285.91771184 474.51953125 279.2109375 C474.52352936 278.12119629 474.52752747 277.03145508 474.53164673 275.90869141 C474.54841037 272.32184103 474.57520323 268.73519854 474.60546875 265.1484375 C474.61574097 263.92721191 474.62601318 262.70598633 474.63659668 261.44775391 C474.70767476 253.68026071 474.80678502 245.9134294 474.92285156 238.14648438 C474.96126231 235.48116898 474.99609323 232.81579959 475.02734375 230.15039062 C475.93067466 153.32962447 475.93067466 153.32962447 492.60546875 136.1484375 C493.12753906 135.58769531 493.64960937 135.02695312 494.1875 134.44921875 C500.69034623 128.16788066 510.55743172 124.18807077 519.5859375 124.12890625 C532.39939465 124.95608436 542.13405552 128.95168648 550.85546875 138.5234375 C558.1026218 147.48391206 560.70493116 157.7657678 559.60546875 169.1484375 C558.89548279 173.2157842 558.04910354 177.25439285 557.11669922 181.27636719 C554.37432574 193.59342811 554.45959433 206.40067414 554.32421875 218.96484375 C554.30610007 220.31909317 554.28749403 221.67333615 554.26843262 223.02757263 C554.19975339 227.97495804 554.13912977 232.9224335 554.07940674 237.86993408 C554.02827177 242.08934351 553.97347511 246.30867281 553.91358948 250.52796745 C553.88728189 252.48544211 553.8663724 254.44298694 553.84558105 256.40052795 C553.82050476 258.18915504 553.82050476 258.18915504 553.79492188 260.01391602 C553.7823938 261.05677261 553.76986572 262.09962921 553.75695801 263.17408752 C553.60129434 266.2303981 553.1663117 269.14225129 552.60546875 272.1484375 C563.79641858 274.52091886 574.43481026 276.20736043 585.91796875 276.2734375 C586.60044678 276.27819092 587.2829248 276.28294434 587.98608398 276.2878418 C593.38647135 276.31003298 593.38647135 276.31003298 598.60546875 275.1484375 C599.83588274 273.47488789 599.83588274 273.47488789 600.60546875 271.1484375 C601.105625 270.11976563 601.60578125 269.09109375 602.12109375 268.03125 C606.9645822 257.68717271 610.08995492 247.18062433 612.84521484 236.11523438 C613.61666176 233.10475815 614.45844344 230.12080485 615.3125 227.1328125 C618.72084443 214.7689595 620.21638492 203.4694962 619.64794922 190.62036133 C619.07350236 175.97196631 623.04521257 160.59627081 632.59375 149.18359375 C640.71745884 140.96523976 650.12571399 136.84477126 661.578125 136.08984375 C671.61251124 136.28405768 679.80671342 138.90608613 687.60546875 145.1484375 C688.49234375 145.7259375 689.37921875 146.3034375 690.29296875 146.8984375 C697.04716351 153.47008645 701.66588867 163.07229557 701.96191406 172.49682617 C701.96815636 174.52003192 701.95783836 176.54333614 701.93359375 178.56640625 C701.93172058 179.65947586 701.92984741 180.75254547 701.92791748 181.8787384 C701.92121453 184.19091852 701.90733516 186.50308763 701.88671875 188.81518555 C701.85596615 192.27989783 701.84577626 195.7441499 701.83984375 199.20898438 C701.7972252 211.31455039 701.4832252 223.37459238 700.84570312 235.46264648 C699.58632709 259.38806129 701.24845838 282.4402837 704.01933289 306.19467163 C704.13154678 307.15781281 704.24376068 308.12095398 704.359375 309.11328125 C704.47042068 310.06602936 704.58146637 311.01877747 704.69587708 312.00039673 C711.167737 368.29336128 712.14245955 421.81560871 676.16796875 468.4609375 C644.67931734 508.11143836 597.22316354 527.4127339 548.04296875 533.3359375 C538.93311367 534.33684772 529.76874166 534.55900389 520.61303711 534.80737305 C515.42610433 534.9505243 510.28487731 535.13732493 505.12109375 535.66015625 C479.32747031 538.19419246 454.10106393 536.62126452 433.0546875 520.16796875 C432.24644531 519.50152344 431.43820312 518.83507812 430.60546875 518.1484375 C429.82816406 517.53355469 429.05085938 516.91867187 428.25 516.28515625 C413.57481177 504.08530098 404.09417667 486.02505231 401.60546875 467.1484375 C400.31323144 445.66764023 405.34088947 425.8204952 419.6875 409.25390625 C420.32042969 408.55910156 420.95335937 407.86429688 421.60546875 407.1484375 C422.14558594 406.50519531 422.68570312 405.86195313 423.2421875 405.19921875 C430.11781861 397.52448282 440.37702818 392.91918341 450.60546875 392.1484375 C461.42464098 391.89274067 470.84833751 395.42133589 479.04296875 402.4609375 C487.47474762 410.67651691 491.38852291 419.71865299 492.04296875 431.5859375 C491.72250963 439.94839459 488.78499871 448.58769955 483.60546875 455.1484375 C482.94546875 456.1384375 482.28546875 457.1284375 481.60546875 458.1484375 C488.82084532 457.8137562 496.03490969 457.4569141 503.24853516 457.08642578 C505.68970412 456.96345704 508.13111112 456.84510475 510.57275391 456.73193359 C523.7343546 456.11863014 536.74425647 455.20990148 549.77734375 453.21875 C550.82393158 453.05904724 551.87051941 452.89934448 552.94882202 452.73480225 C571.42041114 449.71589209 587.87132089 442.75785122 602.60546875 431.1484375 C603.31445312 430.60574219 604.0234375 430.06304688 604.75390625 429.50390625 C613.16873032 422.66894046 619.01152644 413.65653545 624.10546875 404.2109375 C624.44384766 403.58445312 624.78222656 402.95796875 625.13085938 402.3125 C627.72233843 397.32269561 628.73473359 393.03745572 628.71899414 387.44995117 C628.71891861 386.54939499 628.71884308 385.64883881 628.71876526 384.72099304 C628.71360397 383.7624794 628.70844269 382.80396576 628.703125 381.81640625 C628.70171005 380.82465897 628.7002951 379.83291168 628.69883728 378.81111145 C628.69325293 375.65268907 628.68070327 372.49433835 628.66796875 369.3359375 C628.66295173 367.19075623 628.65838917 365.04557385 628.65429688 362.90039062 C628.64328863 357.64971526 628.62656605 352.3990815 628.60546875 347.1484375 C627.89116699 347.41760986 627.17686523 347.68678223 626.44091797 347.96411133 C592.37710271 360.61139747 550.59775973 356.99205369 517.64404297 342.1328125 C506.84272865 336.91713593 498.11846833 329.48992976 489.60546875 321.1484375 C489.74984375 321.76589844 489.89421875 322.38335938 490.04296875 323.01953125 C492.80737161 335.63211931 491.84973812 346.70862733 484.91796875 358.0234375 C478.92642611 366.22793685 469.6369154 372.24962796 459.60546875 374.1484375 C452.05192462 374.60569512 445.05292027 374.80755315 437.96484375 371.9296875 C434.92743175 370.92392194 431.97023423 370.63417507 428.79296875 370.2734375 C416.58786242 368.64783795 407.46408623 363.19280424 397.60546875 356.1484375 C396.15140625 357.3859375 396.15140625 357.3859375 394.66796875 358.6484375 C393.69730469 359.47021484 393.69730469 359.47021484 392.70703125 360.30859375 C391.31356214 361.52852675 389.95279598 362.78692173 388.62890625 364.08203125 C370.3039481 381.68634498 345.64814516 382.83457283 321.66627502 382.38090515 C299.1837434 381.76780567 277.14779384 373.93650836 257.60546875 363.1484375 C256.17460938 362.35953125 256.17460938 362.35953125 254.71484375 361.5546875 C245.0149482 355.9608827 236.79727855 348.72380677 228.60546875 341.1484375 C227.99960937 340.63152344 227.39375 340.11460937 226.76953125 339.58203125 C221.20327909 334.57763083 217.66442113 328.1462363 213.83984375 321.79296875 C212.23024607 319.12360655 210.5498101 316.59148978 208.60546875 314.1484375 C207.98800781 315.17582031 207.37054687 316.20320313 206.734375 317.26171875 C201.56900966 325.75582939 196.21202153 333.68303285 189.60546875 341.1484375 C189.17621094 341.63795898 188.74695313 342.12748047 188.3046875 342.63183594 C166.33171028 367.59681078 140.64144189 384.25030582 106.99853516 386.99609375 C98.54182079 387.53445222 90.07146252 387.3020771 81.60546875 387.1484375 C80.20085391 387.12837038 78.79623093 387.108867 77.39160156 387.08984375 C57.27368371 386.80687035 37.28905951 385.9222835 17.23901367 384.23510742 C8.12911388 383.47133795 -0.9406563 382.90936905 -10.08203125 382.6484375 C-25.09084763 382.14599209 -39.28794117 378.83058066 -50.58203125 368.1953125 C-61.50708663 355.85753444 -63.56047426 343.37007838 -63.49700928 327.50471497 C-63.49589685 326.22904889 -63.49478442 324.95338282 -63.49363828 323.6390602 C-63.49037435 320.10933118 -63.48075427 316.57964412 -63.47003102 313.04993093 C-63.45953477 309.23861551 -63.45486331 305.42729208 -63.44935608 301.6159668 C-63.43615723 293.28731196 -63.41529074 284.958687 -63.39279079 276.6300528 C-63.37875362 271.42623469 -63.36625502 266.2224136 -63.35404205 261.01859093 C-63.31993246 246.60067254 -63.28395729 232.18276171 -63.24094772 217.76486683 C-63.23819968 216.8427691 -63.23545163 215.92067137 -63.23262031 214.97063128 C-63.22986364 214.04637477 -63.22710697 213.12211827 -63.22426677 212.16985399 C-63.21868147 210.29707389 -63.21309906 208.42429378 -63.20751953 206.55151367 C-63.20475035 205.62255748 -63.20198116 204.6936013 -63.19912806 203.73649492 C-63.15462542 188.68775275 -63.12355809 173.6390154 -63.09831974 158.59022979 C-63.07219621 143.1268229 -63.03492645 127.66347552 -62.98650002 112.20012206 C-62.95958288 103.52326693 -62.93739331 94.84645795 -62.9274826 86.1695652 C-62.91898711 78.78055718 -62.90025689 71.39166264 -62.86837879 64.002717 C-62.85242977 60.23617443 -62.84117946 56.46977885 -62.84298134 52.70319939 C-62.84479977 48.61099118 -62.82342981 44.5192197 -62.79998779 40.42707825 C-62.80415325 39.24894037 -62.80831871 38.07080248 -62.81261039 36.85696346 C-62.70740028 25.26482066 -60.83357721 15.27577758 -53.39453125 6.1484375 C-52.62302734 5.19130859 -52.62302734 5.19130859 -51.8359375 4.21484375 C-38.93387214 -10.17235144 -15.10958052 -11.68342768 0 0 Z M28.60546875 83.1484375 C26.31356132 84.20970636 24.02075221 85.26903009 21.72705078 86.32641602 C20.57512238 86.85759537 19.42319397 87.38877472 18.23635864 87.93605042 C17.36816498 88.33613815 16.49997131 88.73622589 15.60546875 89.1484375 C15.58214338 117.29406752 15.56449136 145.4396961 15.55365658 173.58533382 C15.54849285 186.65283976 15.54144869 199.72033971 15.5300293 212.7878418 C15.5200848 224.17297147 15.51361588 235.5580968 15.51138026 246.94323069 C15.51007275 252.97562196 15.50698438 259.00800081 15.49973869 265.04038811 C15.49298217 270.71113607 15.49085103 276.38186642 15.49236107 282.05261803 C15.49208457 284.14046067 15.49007728 286.22830386 15.48626328 288.31614304 C15.48133177 291.15344666 15.48246844 293.99068268 15.48521423 296.82798767 C15.48230139 297.66551966 15.47938855 298.50305165 15.47638744 299.3659634 C15.13246916 303.05892876 15.13246916 303.05892876 16.60546875 306.1484375 C20.4388834 306.6657262 24.31067948 306.87145702 28.16796875 307.1484375 C29.36873047 307.23528809 30.56949219 307.32213867 31.80664062 307.41162109 C51.35511696 308.74949191 70.9521042 309.20312727 90.54296875 309.3359375 C91.63158203 309.34898926 92.72019531 309.36204102 93.84179688 309.37548828 C103.53354886 309.38616202 110.95832688 308.60317795 118.54296875 302.2734375 C119.43846436 301.54423096 119.43846436 301.54423096 120.35205078 300.80029297 C140.91732393 283.54576946 150.92714486 258.55754202 156.35546875 232.9609375 C156.67161133 231.48330933 156.67161133 231.48330933 156.99414062 229.97583008 C161.49347426 207.82398787 164.25721928 176.93902718 151.60546875 157.1484375 C142.13869175 142.99669542 130.97314823 129.94280606 119.84179688 117.08789062 C116.86711397 113.64829039 113.99491057 110.14922299 111.16796875 106.5859375 C102.37798938 95.78954979 92.2088509 85.8840256 80.60546875 78.1484375 C77.78343405 77.91564839 75.06289823 77.79635398 72.23828125 77.77734375 C70.99242752 77.76380104 70.99242752 77.76380104 69.72140503 77.74998474 C67.95786135 77.7354679 66.19426363 77.72659194 64.43066406 77.72290039 C61.77441619 77.7111322 59.12059216 77.66207649 56.46484375 77.61132812 C46.06555603 77.50894741 38.11772733 78.62895286 28.60546875 83.1484375 Z M287.60546875 233.1484375 C282.106377 244.34301714 279.25335573 255.21050683 279.23046875 267.6484375 C279.22885742 268.48479736 279.22724609 269.32115723 279.22558594 270.18286133 C279.33784423 276.40134691 279.68997825 282.93462164 284.29296875 287.5859375 C296.43359897 298.79267309 313.63757191 303.35259002 329.60546875 305.1484375 C330.32992187 305.24511719 331.054375 305.34179688 331.80078125 305.44140625 C335.09254651 305.70503247 336.5300313 305.2023214 339.23046875 303.2734375 C347.16064995 292.83898855 348.89172035 282.73689993 348.52734375 269.97460938 C348.4283028 264.27562799 349.0767397 259.63387704 350.60546875 254.1484375 C350.70682364 250.43536146 350.70682364 250.43536146 349.60546875 247.1484375 C340.73173905 238.77893063 327.14643586 238.28030863 315.54296875 237.0234375 C312.80153133 236.71306174 310.06088011 236.39607887 307.3203125 236.078125 C306.02206543 235.92827148 304.72381836 235.77841797 303.38623047 235.62402344 C298.09710786 234.95869922 292.851265 234.09251955 287.60546875 233.1484375 Z " fill="#000000" transform="translate(431.39453125,262.8515625)"/>
<path d="M0 0 C0.804375 0.53625 1.60875 1.0725 2.4375 1.625 C19.23940222 17.19749474 22.92043402 43.25777325 24 65 C24.45333643 78.12776867 24.02254385 91.27490036 23.734375 104.40234375 C23.7105928 105.51203018 23.68681061 106.62171661 23.66230774 107.76502991 C23.54183949 113.36525881 23.41342918 118.96505092 23.26831055 124.56469727 C23.02549021 134.61674153 22.94539564 144.57259161 23.5856781 154.60914612 C24.23190986 164.98577213 24.29288989 175.37940577 24.44555664 185.77270508 C24.5376568 191.97232623 24.6431309 198.17171181 24.75 204.37109375 C24.78099792 206.16938126 24.78099792 206.16938126 24.81262207 208.0039978 C24.97236297 217.00552269 25.18188736 226.00258799 25.5 235 C25.53544922 236.0511499 25.57089844 237.1022998 25.60742188 238.18530273 C25.81352557 243.5119082 26.25302569 248.72138151 27 254 C27.06993164 253.36723145 27.13986328 252.73446289 27.21191406 252.08251953 C31.18543501 216.76162353 39.14706248 181.51193182 63 154 C63.78375 152.96875 64.5675 151.9375 65.375 150.875 C82.258348 132.3837141 102.87321867 127.99288407 126.76367188 126.87011719 C150.59617895 126.04225115 172.50795503 128.83171372 191 145 C191.50772949 145.44150391 192.01545898 145.88300781 192.53857422 146.33789062 C195.594709 149.01998514 198.57290823 151.77359777 201.51171875 154.58349609 C203.00468706 156.00446101 204.51735211 157.402177 206.03125 158.80078125 C215.71617099 167.92396438 224.08747649 178.54957156 229 191 C229.515625 190.319375 230.03125 189.63875 230.5625 188.9375 C238.30858194 179.60247817 247.18797591 173.04445859 259.53515625 171.19140625 C282.86024892 169.38010745 306.2231187 184.45646734 324 198 C325.17473431 198.87770507 326.35052288 199.75400081 327.52734375 200.62890625 C330.36166989 202.73935044 333.18416575 204.86491688 336 207 C336.26321045 206.30374512 336.5264209 205.60749023 336.79760742 204.89013672 C338.11020215 201.73511206 339.63266578 198.77447772 341.23828125 195.7578125 C341.55540573 195.16116791 341.87253021 194.56452332 342.19926453 193.94979858 C343.23385385 192.00649652 344.27281112 190.06557799 345.3125 188.125 C345.84580933 187.12690308 345.84580933 187.12690308 346.38989258 186.10864258 C352.63053211 174.43490982 359.0561442 162.87559115 365.64257812 151.39306641 C366.87707422 149.21671196 368.07920049 147.0270422 369.265625 144.82421875 C375.79174131 132.78214811 382.86769869 124.07321412 395.73046875 118.90234375 C405.5481312 116.19280967 417.18997233 116.83062091 426.31640625 121.32421875 C434.3849683 126.36266579 440.12164092 132.30771276 444 141 C444.4125 141.886875 444.825 142.77375 445.25 143.6875 C448.79499704 154.61790754 447.30374348 165.02204879 442.46289062 175.24658203 C440.56526505 178.92181506 438.60968182 182.55887596 436.625 186.1875 C435.90186117 187.52557428 435.17929426 188.86395778 434.45727539 190.20263672 C429.70880233 198.98069999 424.83168791 207.683707 419.88110352 216.34936523 C413.59161941 227.39224604 407.62643225 238.61253294 401.69970703 249.85351562 C400.55766512 251.96765468 399.37532709 254.06047198 398.15576172 256.13085938 C397.58744629 257.10345703 397.01913086 258.07605469 396.43359375 259.078125 C395.91724365 259.9330957 395.40089355 260.78806641 394.86889648 261.66894531 C393.73819375 263.95787403 393.73819375 263.95787403 394.70996094 266.13452148 C396.57874086 268.83689608 398.67117294 271.32617701 400.8125 273.8125 C411 285.84760705 411 285.84760705 411 289 C411.88377319 289.41511841 411.88377319 289.41511841 412.78540039 289.83862305 C422.22797243 294.79048229 430.6802135 303.4051234 438.1875 310.875 C438.70304443 311.38522705 439.21858887 311.8954541 439.74975586 312.42114258 C444.7659948 317.53166862 448.92121359 322.77678911 451.25 329.625 C451.56453125 330.52476562 451.8790625 331.42453125 452.203125 332.3515625 C455.37951601 342.90839143 454.6036459 352.71626722 449.7109375 362.60546875 C443.94062235 372.80380649 436.94106425 379.02481051 425.74609375 382.75 C413.74205495 385.84227475 400.6535188 384.15215504 389.796875 378.140625 C383.31323665 374.02492413 379.63601383 369.32534085 375.7734375 362.68359375 C372.10696262 357.13542582 366.83511995 353.03261011 361.8125 348.75 C361.18408203 348.20859375 360.55566406 347.6671875 359.90820312 347.109375 C356.65799044 344.26070647 356.65799044 344.26070647 353 342 C352.73678955 342.83668213 352.4735791 343.67336426 352.20239258 344.53540039 C350.9090933 348.2619405 349.38172959 351.84152772 347.76171875 355.43359375 C347.44450363 356.14012085 347.12728851 356.84664795 346.80046082 357.57458496 C345.76815674 359.86469013 344.72898638 362.15155699 343.6875 364.4375 C343.15518768 365.60842697 343.15518768 365.60842697 342.61212158 366.80300903 C336.79934474 379.54346487 330.38628915 391.72582477 323.2890625 403.80419922 C318.3121827 412.28186152 315.47714074 419.68506428 313.76953125 429.44140625 C311.74448864 438.80594338 306.66625841 446.55189345 298.875 452.125 C289.32353423 458.10450081 280.26923884 460.28059532 269 459 C262.66845875 457.44877239 257.18759687 454.98117899 252 451 C251.01 450.29875 250.02 449.5975 249 448.875 C241.25741687 442.20946911 237.8271285 432.13781265 236.68359375 422.26953125 C236.16323863 410.09993564 239.80235708 397.33363587 244 386 C243.59910156 386.58007812 243.19820312 387.16015625 242.78515625 387.7578125 C238.54144765 393.58930323 234.37435886 397.60586087 228 401 C227.2471875 401.4021875 226.494375 401.804375 225.71875 402.21875 C219.77039498 404.85409716 214.03318002 405.34663823 207.62890625 405.58984375 C206.25881157 405.64764008 206.25881157 405.64764008 204.86103821 405.706604 C194.8429173 406.09695685 184.82410056 406.22134151 174.79907227 406.24023438 C171.69976151 406.24996152 168.60111062 406.28115828 165.50195312 406.3125 C129.93298689 406.49993601 95.02923689 400.30636181 67 377 C65.55367187 375.85724609 65.55367187 375.85724609 64.078125 374.69140625 C60.82318175 371.96786141 58.21896135 368.90945559 55.625 365.5625 C55.15239746 364.95486816 54.67979492 364.34723633 54.19287109 363.72119141 C45.84254475 352.74284357 40.25634196 340.69282983 35.4309082 327.81787109 C35.16244583 327.10166595 34.89398346 326.38546082 34.61738586 325.64755249 C34.41364853 325.10386017 34.20991119 324.56016785 34 324 C34.02094727 325.3096875 34.04189453 326.619375 34.06347656 327.96875 C34.13677136 332.90385677 34.18211991 337.83891718 34.21972656 342.77441406 C34.23964078 344.89624159 34.26678222 347.01801573 34.30175781 349.13964844 C34.55776456 365.08736295 33.97375113 379.95301002 26.3125 394.375 C25.9721875 395.03363037 25.631875 395.69226074 25.28125 396.37084961 C22.03219851 402.39710171 17.94804899 407.27205995 13 412 C12.39929687 412.62003906 11.79859375 413.24007813 11.1796875 413.87890625 C-20.63876661 444.66429367 -81.04016944 444.96701626 -122 446 C-122.67266907 446.01780518 -123.34533813 446.03561035 -124.03839111 446.05395508 C-128.17059483 446.16101522 -132.30201679 446.2402119 -136.43536377 446.28610229 C-138.37558611 446.31168368 -140.31552009 446.35681445 -142.25537109 446.40258789 C-154.50635778 446.47983757 -166.19564222 443.65754151 -176 436 C-178.11036668 433.79046195 -180.06376272 431.49847968 -182.015625 429.1484375 C-183.99486303 427.00556168 -185.83614638 425.64418147 -188.3125 424.125 C-200.63214499 416.35087919 -210.43292606 403.62142617 -214.546875 389.5390625 C-215.75168279 382.78798435 -216.11181237 375.73484484 -215.94995117 368.88061523 C-215.80599528 362.74099888 -216.73227584 357.07193948 -217.9375 351.0625 C-218.30480676 349.20000811 -218.66811572 347.33672318 -219.02734375 345.47265625 C-219.18968506 344.66062744 -219.35202637 343.84859863 -219.51928711 343.01196289 C-220.9781405 333.87134616 -221.18580154 324.79540148 -221.23828125 315.55078125 C-221.24235678 314.87259024 -221.2464323 314.19439922 -221.25063133 313.49565697 C-221.27134392 309.90571797 -221.28570875 306.31581551 -221.29516602 302.72583008 C-221.30620234 299.06612422 -221.34061259 295.4070309 -221.38033772 291.74754047 C-221.40677979 288.88949136 -221.41488187 286.03158245 -221.41844749 283.17342186 C-221.42553504 281.18244539 -221.45184021 279.19156595 -221.47883606 277.20075989 C-221.43959205 260.46099599 -216.48026412 246.0708912 -206 233 C-205.401875 232.154375 -204.80375 231.30875 -204.1875 230.4375 C-200.86460416 226.73484463 -197.02749337 223.9007912 -193 221 C-192.19691406 220.41992188 -191.39382813 219.83984375 -190.56640625 219.2421875 C-164.81545174 201.76132645 -130.90122454 196.77895932 -100.484375 196.90234375 C-99.13389133 196.90421464 -97.78340696 196.90563536 -96.43292236 196.90663147 C-92.92150922 196.91040394 -89.41013911 196.92018752 -85.89874268 196.93133545 C-82.29838645 196.94166455 -78.6980231 196.94615343 -75.09765625 196.95117188 C-68.06508683 196.96181593 -61.03254626 196.97882689 -54 197 C-54.03029297 196.16442062 -54.06058594 195.32884125 -54.09179688 194.46794128 C-54.75880741 175.38927549 -55.09122008 156.32898056 -55.0625 137.23828125 C-55.06105988 136.22377773 -55.05961975 135.20927422 -55.05813599 134.16402817 C-55.04596932 126.88016111 -55.02387637 119.59633664 -55 112.3125 C-54.97618842 104.92740875 -54.95598258 97.54233774 -54.94406128 90.15721703 C-54.93765776 87.24746573 -54.92517967 84.33778378 -54.91235352 81.42805481 C-54.90872178 79.64515235 -54.90536995 77.86224929 -54.90234375 76.0793457 C-54.89459427 74.89426422 -54.89459427 74.89426422 -54.88668823 73.6852417 C-54.48987618 63.13157235 -54.48987618 63.13157235 -58.8125 54.0625 C-65.41049172 46.13222149 -67.82761906 36.16132288 -67 26 C-65.18303931 14.43612305 -60.4823361 6.3416814 -51.5625 -1.20703125 C-36.06163359 -12.05291186 -15.03104657 -11.45222596 0 0 Z M119 208 C117.57812024 210.47902885 116.41777537 212.76665084 115.3125 215.375 C115.01794922 216.035 114.72339844 216.695 114.41992188 217.375 C113.59282965 219.24106874 112.79557523 221.12027817 112 223 C111.58105469 223.92039062 111.16210938 224.84078125 110.73046875 225.7890625 C109.71193839 228.13227497 109.71193839 228.13227497 111 231 C111.7425 230.278125 112.485 229.55625 113.25 228.8125 C122.51163931 221.09080072 133.85815438 219.81620146 145.4375 219.9375 C146.26443359 219.94201172 147.09136719 219.94652344 147.94335938 219.95117188 C149.96227146 219.96284189 151.98114574 219.98077282 154 220 C154 215.18368688 150.70601621 212.47568504 147.54663086 209.15209961 C142.16934062 204.17043699 137.3159398 203.93248032 130.23291016 204.1262207 C125.83143617 204.44006074 122.426243 205.03099584 119 208 Z M231 232 C230.731875 233.0415625 230.46375 234.083125 230.1875 235.15625 C226.12123818 250.28594713 220.0660731 263.84511726 210 276 C209.40960937 276.71542969 208.81921875 277.43085938 208.2109375 278.16796875 C197.91347954 289.49517251 182.08832585 295.9962595 166.98828125 296.9140625 C160.65228738 297.09627409 154.33598196 297.13526739 148 297 C147.27377441 296.98743164 146.54754883 296.97486328 145.79931641 296.96191406 C129.67737407 296.61398401 117.56970266 292.76975516 106 281 C105.10316119 293.77995304 109.24891261 307.84999946 117.3125 317.875 C127.37439925 325.83092034 141.03312699 328.17532773 153.6027832 328.08178711 C155.50559807 328.07199074 155.50559807 328.07199074 157.44685364 328.06199646 C158.11521555 328.05625547 158.78357746 328.05051449 159.47219276 328.04459953 C161.58841781 328.0270313 163.7045655 328.01685355 165.82084656 328.00868225 C171.8336823 327.98438985 177.84641362 327.94884893 183.85913086 327.90405273 C187.55006922 327.8770691 191.24094784 327.86015832 194.93196678 327.84918404 C196.32764073 327.84303154 197.72330393 327.83309992 199.11892128 327.81910515 C213.42828578 327.67690319 226.903783 329.10377763 237.9375 339.25 C245.25179759 347.3492466 248.43189896 357.81059058 248.203125 368.58203125 C247.82238723 373.11427509 246.93099491 377.5528368 246 382 C249.17561522 378.17088197 251.29117852 373.83276377 253.5625 369.4375 C254.46450076 367.7029466 255.36685357 365.96857623 256.26953125 364.234375 C256.72666504 363.35458984 257.18379883 362.47480469 257.65478516 361.56835938 C258.88064183 359.22788529 260.12721359 356.90061678 261.38671875 354.578125 C266.85858514 344.4441966 271.81365044 334.10466856 276.6322937 323.64785767 C281.73764638 312.57191288 287.09937672 301.64515131 292.64550781 290.78344727 C293.48033691 289.13880493 293.48033691 289.13880493 294.33203125 287.4609375 C294.82421143 286.49978027 295.3163916 285.53862305 295.82348633 284.54833984 C296.85062765 282.32354193 297.64318042 280.41989157 298 278 C288.75945894 264.03029314 268.23491026 252.64762363 253.08984375 246.89453125 C244.17435058 243.41174062 237.6769515 238.81108669 231 232 Z M-95.62353516 274.05419922 C-120.07890502 274.39539944 -120.07890502 274.39539944 -143 282 C-144.33175214 285.99525641 -144.10855759 289.80661605 -144.0546875 293.96875 C-144.04474762 294.86889328 -144.03480774 295.76903656 -144.02456665 296.69645691 C-143.98512534 299.63124637 -143.93240535 302.56550885 -143.875 305.5 C-143.85655029 306.49375641 -143.83810059 307.48751282 -143.8190918 308.51138306 C-143.49583733 323.94569162 -142.0879505 338.39866581 -138.51953125 353.44677734 C-137.86396776 356.66852686 -137.63356459 359.85347494 -137.52148438 363.13598633 C-137.10990268 365.13286861 -137.10990268 365.13286861 -135.45141602 366.73974609 C-132.03470939 368.49624839 -128.92227659 368.30358344 -125.18359375 368.14453125 C-124.41917969 368.12369476 -123.65476562 368.10285828 -122.8671875 368.08139038 C-120.38975539 368.00852658 -117.91400025 367.91187026 -115.4375 367.8125 C-113.73511948 367.75331421 -112.03272682 367.69447681 -110.33032227 367.63598633 C-75.17320194 367.84483696 -75.17320194 367.84483696 -44 356 C-43.89361867 353.67525499 -43.85902402 351.38780331 -43.875 349.0625 C-43.88225098 347.93074341 -43.88225098 347.93074341 -43.88964844 346.77612305 C-43.91550166 344.1838209 -43.95620892 341.5920592 -44 339 C-44.01256836 338.09572266 -44.02513672 337.19144531 -44.03808594 336.25976562 C-44.38456796 315.71126026 -46.66993173 295.39902717 -49 275 C-64.55316635 274.32047519 -80.05695266 273.73261153 -95.62353516 274.05419922 Z " fill="#000000" transform="translate(1388,216)"/>
<path d="M0 0 C8.43264805 7.8450624 12.37029206 18.07022778 13.01171875 29.4296875 C12.80627687 37.77943237 9.86946694 46.6783943 4.63671875 53.1796875 C3.93546875 54.1696875 3.23421875 55.1596875 2.51171875 56.1796875 C-3.68415442 63.42087669 -14.05237064 67.8072743 -23.4296875 68.69921875 C-24.92792456 68.80370753 -26.42668475 68.90085369 -27.92578125 68.9921875 C-40.70410202 69.97606387 -53.32294176 72.05899809 -65.97290039 74.05981445 C-83.3410326 76.77965924 -100.29023039 77.78467876 -117.86328125 76.6796875 C-135.47884957 75.64881831 -152.29811221 76.17261243 -169.79467773 78.609375 C-177.89204735 79.73693909 -185.96389199 80.70814935 -194.11328125 81.3671875 C-194.97880615 81.43856934 -195.84433105 81.50995117 -196.73608398 81.58349609 C-213.18912774 82.85396577 -229.57764743 83.33212043 -246.07421875 83.3125 C-248.13644421 83.31317761 -250.19866958 83.31415137 -252.26089478 83.31539917 C-256.57221237 83.31686332 -260.88350908 83.31476904 -265.19482422 83.31005859 C-269.51059351 83.30556016 -273.8263207 83.30543485 -278.14208984 83.31005859 C-292.88303144 83.32577017 -307.62269283 83.28300688 -322.36328125 83.1796875 C-323.42213028 83.17319687 -324.48097931 83.16670624 -325.57191467 83.16001892 C-331.84643986 83.12008939 -338.12002786 83.05754846 -344.39397049 82.96261215 C-346.32929331 82.93584945 -348.26471576 82.91540303 -350.20017624 82.90185928 C-362.91375444 82.80455073 -373.85331381 82.24547647 -384.36328125 74.1796875 C-385.84828125 73.1278125 -385.84828125 73.1278125 -387.36328125 72.0546875 C-394.95200405 65.52161381 -398.44602779 55.59415299 -399.64453125 45.90625 C-400.14572007 34.33714129 -396.08757958 24.4491571 -388.39453125 16.0234375 C-377.00832923 4.96727032 -364.10261053 4.01682844 -349.06958008 4.09790039 C-347.72483432 4.10146182 -346.38008723 4.10454635 -345.03533936 4.10719299 C-342.14566785 4.11372529 -339.25602774 4.12327451 -336.36637306 4.13508797 C-331.76685403 4.15352193 -327.16734229 4.16302067 -322.5677948 4.17100525 C-309.48941724 4.19503756 -296.4110851 4.23052607 -283.33276367 4.27563477 C-276.10408628 4.30048832 -268.87542757 4.31766788 -261.64671344 4.32719415 C-257.8385593 4.33257569 -254.03050398 4.34165916 -250.22239113 4.36058235 C-225.655346 4.47996418 -201.28033357 3.60019308 -176.92578125 0.1171875 C-164.34352351 -1.63741454 -151.89334707 -3.01504555 -139.17578125 -2.9453125 C-138.28141357 -2.94337891 -137.3870459 -2.94144531 -136.46557617 -2.93945312 C-130.68745443 -2.90263352 -124.94196826 -2.67645934 -119.17578125 -2.3203125 C-101.58909566 -1.24315438 -85.32835382 -2.50877056 -67.92578125 -5.2578125 C-64.73660834 -5.75037411 -61.54688605 -6.23908297 -58.35667419 -6.72486877 C-56.39245837 -7.02512575 -54.42890107 -7.32973986 -52.46620178 -7.63975525 C-33.7970455 -10.5386356 -15.90119745 -12.24786448 0 0 Z " fill="#000000" transform="translate(1592.36328125,678.8203125)"/>
<path d="M0 0 C3.90696824 -0.04531561 7.81379236 -0.07510162 11.72093201 -0.10119629 C12.92117382 -0.11655426 14.12141563 -0.13191223 15.35802841 -0.1477356 C28.97954323 -0.20088576 41.36396796 2.20283207 51.67698669 11.79724121 C59.13283875 19.93512547 62.83042475 30.52090157 62.55979919 41.51989746 C61.58316454 49.22578312 59.13852333 56.96055933 54.23948669 63.04724121 C53.53823669 64.03724121 52.83698669 65.02724121 52.11448669 66.04724121 C46.21799695 72.93853751 36.43545607 77.34118558 27.51348877 78.35787964 C24.40514797 78.51230958 21.30655205 78.57994725 18.19456482 78.61560059 C17.00981788 78.64053998 15.82507093 78.66547937 14.60442257 78.69117451 C11.34579779 78.75710115 8.08725061 78.81052331 4.82832408 78.85868096 C1.3247981 78.91369675 -2.1783871 78.98549471 -5.68164062 79.0554657 C-11.71698165 79.17391641 -17.75243031 79.28271856 -23.78807068 79.38473511 C-33.33066514 79.54622439 -42.87286854 79.72587888 -52.41505432 79.90979004 C-53.61371799 79.93286482 -53.61371799 79.93286482 -54.83659708 79.95640576 C-58.08169753 80.01888913 -61.32679742 80.08140027 -64.57189327 80.14412194 C-69.4926265 80.23914849 -74.41338618 80.33263606 -79.33416969 80.42502075 C-101.08162056 80.83396391 -122.82559015 81.32138217 -144.56910706 81.90270996 C-145.23212578 81.9203972 -145.8951445 81.93808444 -146.5782547 81.95630765 C-152.47522586 82.11362076 -158.37217788 82.27164375 -164.26911545 82.43021107 C-199.97812922 83.38825123 -235.69002035 84.34449708 -271.41336441 84.47433853 C-273.59417028 84.48454767 -275.77480927 84.5018327 -277.95555115 84.52120972 C-281.84639857 84.55413821 -285.73670924 84.55199148 -289.62770081 84.54333496 C-290.71727585 84.55443298 -291.80685089 84.56553101 -292.92944336 84.57696533 C-302.56605146 84.48921773 -311.04567982 81.96792738 -318.76051331 76.04724121 C-320.24551331 74.99536621 -320.24551331 74.99536621 -321.76051331 73.92224121 C-329.3492361 67.38916752 -332.84325984 57.4617067 -334.04176331 47.77380371 C-334.54295213 36.204695 -330.48481164 26.31671081 -322.79176331 17.89099121 C-311.49669704 6.92331817 -298.61064211 5.9266758 -283.69117737 5.80114746 C-281.66909935 5.77768266 -279.64702144 5.75420557 -277.6249485 5.73030663 C-275.44478536 5.70513322 -273.2646081 5.68191911 -271.08441925 5.65908813 C-263.15919712 5.57488056 -255.23425478 5.46884821 -247.30934143 5.35974121 C-246.47620218 5.34831652 -245.64306293 5.33689182 -244.78467703 5.32512093 C-225.1432543 5.05183931 -205.50701877 4.59635286 -185.86988831 4.10974121 C-184.12480691 4.06670383 -182.37972533 4.02367407 -180.63464355 3.98065186 C-170.03865426 3.7188928 -159.44280747 3.45162779 -148.84700012 3.18261719 C-132.91725707 2.77825461 -116.98738741 2.37888644 -101.05738831 1.98474121 C-100.20384829 1.96362148 -99.35030827 1.94250175 -98.4709034 1.92074203 C-75.46964507 1.35255811 -52.46837858 0.82819611 -29.46363831 0.42224121 C-28.3375692 0.40168671 -27.21150009 0.3811322 -26.05130768 0.35995483 C-17.36779376 0.20373115 -8.6841612 0.10909423 0 0 Z " fill="#000000" transform="translate(694.7605133056641,676.9527587890625)"/>
</svg>
